#!OML:ASF F:\VICON\USERDATA\INSTALL\Justin_Nancy\Justin_Nancy.ASF
:FULLY-SPECIFIED
:DEGREES
308
root -8.58555 17.5925 6.11598 -10.559 61.7114 -14.0992
lowerback 8.66819 0.00255687 4.56682
upperback 0.358622 0.697044 3.79017
thorax -4.493 0.315843 1.29023
lowerneck -16.1731 -4.31439 -9.80983
upperneck 23.8754 -4.30082 4.32218
head 10.6792 -2.27596 2.60621
rclavicle -3.25013e-014 -5.76476e-014
rhumerus -34.1552 -7.4526 -79.3795
rradius 32.307
rwrist 6.42422
rhand -17.9171 9.67584
rfingers 7.12502
rthumb 8.35032 -20.1391
lclavicle -3.25013e-014 -5.76476e-014
lhumerus -27.0977 7.31833 87.7661
lradius 29.353
lwrist -8.79046
lhand -16.3792 24.1282
lfingers 7.12502
lthumb 9.83428 53.8786
rfemur -1.57715 1.17863 26.7567
rtibia 20.164
rfoot -11.8233 -10.727
rtoes -4.59572
lfemur -28.6913 0.930221 -15.2431
ltibia 48.8973
lfoot -15.1902 0.901343
ltoes -8.09104
309
root -8.54199 17.6034 6.20295 -11.8846 63.3761 -15.4283
lowerback 8.3857 -0.0495082 4.80678
upperback 0.566959 0.633706 3.97189
thorax -4.11765 0.29234 1.35159
lowerneck -16.0501 -4.37544 -9.82522
upperneck 23.545 -4.3282 4.09221
head 10.533 -2.31392 2.519
rclavicle -9.69075e-015 1.19271e-014
rhumerus -34.0827 -7.18345 -79.1272
rradius 33.0078
rwrist 6.38629
rhand -17.5455 9.44304
rfingers 7.12502
rthumb 8.70895 -20.3573
lclavicle -9.69075e-015 1.19271e-014
lhumerus -26.996 7.76618 87.5992
lradius 29.3102
lwrist -9.37893
lhand -16.4601 24.6532
lfingers 7.12502
lthumb 9.75622 54.4072
rfemur -0.997121 0.906683 27.1537
rtibia 20.0139
rfoot -11.7605 -10.5209
rtoes -5.68366
lfemur -29.0689 0.940503 -15.3125
ltibia 47.5442
lfoot -15.3845 -0.623892
ltoes -4.12856
310
root -8.49425 17.6289 6.27513 -11.211 64.9956 -15.031
lowerback 7.85611 -0.160567 4.2637
upperback 0.546927 0.398219 4.0216
thorax -3.84725 0.188462 1.73275
lowerneck -15.862 -4.1679 -9.71016
upperneck 23.2343 -3.9624 3.6393
head 10.344 -2.18581 2.38835
rclavicle 1.39149e-014 -7.95139e-014
rhumerus -33.9599 -6.2521 -78.9606
rradius 33.538
rwrist 6.48515
rhand -17.1784 9.3806
rfingers 7.12502
rthumb 9.06316 -20.4047
lclavicle 1.39149e-014 -7.95139e-014
lhumerus -27.1959 8.87315 87.2748
lradius 29.305
lwrist -10.1991
lhand -16.6007 25.3166
lfingers 7.12502
lthumb 9.62064 55.077
rfemur -1.0664 0.42204 26.6144
rtibia 19.8923
rfoot -11.3459 -10.0913
rtoes -9.45386
lfemur -29.7121 0.915315 -16.3488
ltibia 45.9362
lfoot -15.3291 -0.165755
ltoes -3.4048
311
root -8.44491 17.6519 6.31238 -7.69969 66.4834 -11.9208
lowerback 7.39152 -0.244697 3.23582
upperback 0.257088 0.151785 3.65911
thorax -3.88751 0.0726041 1.95793
lowerneck -15.8425 -3.94913 -10.1247
upperneck 23.3757 -3.54883 3.69155
head 10.3727 -2.02582 2.53651
rclavicle 4.01545e-014 3.18055e-015
rhumerus -33.9928 -4.9447 -78.9459
rradius 34.0886
rwrist 5.97921
rhand -17.1485 9.36484
rfingers 7.12502
rthumb 9.09207 -20.4192
lclavicle 4.01545e-014 3.18055e-015
lhumerus -27.5977 9.72692 87.0103
lradius 29.3913
lwrist -9.35869
lhand -17.2003 25.4889
lfingers 7.12502
lthumb 9.04208 55.2751
rfemur -1.73553 -0.235023 24.7077
rtibia 20.2803
rfoot -11.4737 -8.64657
rtoes -9.94921
lfemur -30.4879 0.904753 -18.6576
ltibia 44.0888
lfoot -15.2715 1.09448
ltoes -5.06798
312
root -8.40336 17.6554 6.42785 -9.85953 67.5298 -13.649
lowerback 7.93047 -0.297541 3.36996
upperback 0.331901 0.137272 3.84269
thorax -4.11311 0.0666348 2.07917
lowerneck -15.7415 -3.88984 -10.3791
upperneck 23.5095 -3.45898 3.91833
head 10.4048 -1.98088 2.67631
rclavicle -1.03368e-014 -8.74653e-015
rhumerus -34.1444 -4.40465 -79.0616
rradius 34.6093
rwrist 5.03098
rhand -17.1553 9.50428
rfingers 7.12502
rthumb 9.08547 -20.28
lclavicle -1.03368e-014 -8.74653e-015
lhumerus -28.1939 8.59638 86.9782
lradius 29.9731
lwrist -5.9958
lhand -19.2501 27.026
lfingers 7.12502
lthumb 7.06374 56.8881
rfemur -0.752407 1.04347 25.4714
rtibia 20.42
rfoot -12.2114 -8.44077
rtoes -3.55178
lfemur -30.09 1.57015 -18.5296
ltibia 42.3834
lfoot -15.3919 1.38265
ltoes -7.03859
313
root -8.36372 17.6903 6.44421 -10.1059 67.8118 -14.7592
lowerback 7.50991 0.0361958 4.32325
upperback 0.113068 0.642811 3.69636
thorax -4.09964 0.295849 1.33592
lowerneck -15.7618 -3.95292 -10.074
upperneck 23.5089 -3.59923 3.81987
head 10.4101 -2.02784 2.57047
rclavicle 5.86415e-015 -2.70347e-014
rhumerus -34.1319 -4.47721 -79.0682
rradius 35.1471
rwrist 4.38159
rhand -17.0241 9.51444
rfingers 7.12502
rthumb 9.21205 -20.2643
lclavicle 5.86415e-015 -2.70347e-014
lhumerus -28.3123 8.07842 86.811
lradius 30.1247
lwrist -4.37846
lhand -19.9929 27.1476
lfingers 7.12502
lthumb 6.34663 57.0325
rfemur -1.21374 0.0890324 25.7674
rtibia 20.506
rfoot -11.3734 -7.25665
rtoes -14.1083
lfemur -31.0146 2.16541 -18.6947
ltibia 40.6857
lfoot -15.3662 1.9371
ltoes -5.66408
314
root -8.30596 17.6882 6.5762 -11.3968 69.6667 -15.4013
lowerback 7.5973 -0.0413343 3.46533
upperback 0.403779 0.460466 3.76982
thorax -3.85346 0.227191 1.91095
lowerneck -15.7537 -4.02819 -9.81363
upperneck 23.6186 -3.76712 3.8044
head 10.4541 -2.08239 2.49978
rclavicle 4.94974e-014 6.36111e-015
rhumerus -34.1526 -4.58594 -78.9512
rradius 35.7207
rwrist 3.95373
rhand -16.3641 9.07596
rfingers 7.12502
rthumb 9.84886 -20.6737
lclavicle 4.94974e-014 6.36111e-015
lhumerus -28.4235 7.96219 86.6115
lradius 30.0623
lwrist -4.19879
lhand -18.003 25.3076
lfingers 7.12502
lthumb 8.26745 55.1258
rfemur 0.0321738 1.15226 25.7901
rtibia 20.189
rfoot -11.9302 -6.9278
rtoes -5.61507
lfemur -30.4829 1.9421 -19.1257
ltibia 39.1695
lfoot -15.6548 1.6233
ltoes -3.55423
315
root -8.25742 17.6976 6.60545 -12.3528 70.1372 -17.0362
lowerback 7.18578 0.134878 4.38237
upperback 0.207384 0.7553 3.72448
thorax -3.81802 0.356726 1.31985
lowerneck -15.5647 -3.95816 -9.47653
upperneck 23.599 -3.74174 3.68458
head 10.3972 -2.0533 2.40662
rclavicle -4.53229e-014 2.38542e-015
rhumerus -34.2462 -4.44533 -78.9343
rradius 36.2657
rwrist 3.36146
rhand -15.7488 9.08379
rfingers 7.12502
rthumb 10.4425 -20.6369
lclavicle -4.53229e-014 2.38542e-015
lhumerus -28.6772 8.34214 86.231
lradius 30.0209
lwrist -4.10647
lhand -16.6608 23.9483
lfingers 7.12502
lthumb 9.56263 53.7113
rfemur -0.316663 1.8302 26.0467
rtibia 20.0815
rfoot -11.9072 -5.38267
rtoes 0.00727245
lfemur -31.2604 1.66752 -19.0249
ltibia 37.65
lfoot -15.8495 3.00481
ltoes -2.91575
316
root -8.20045 17.7022 6.64147 -12.3392 70.81 -17.5209
lowerback 6.70516 0.228778 4.64257
upperback 0.141818 0.86619 3.66339
thorax -3.61056 0.40868 1.10167
lowerneck -15.4938 -3.79461 -8.82545
upperneck 23.4416 -3.54127 3.11091
head 10.2857 -1.96756 2.12029
rclavicle -3.86636e-014 4.69132e-014
rhumerus -34.1117 -4.39861 -78.8957
rradius 36.5437
rwrist 2.95413
rhand -16.111 9.61558
rfingers 7.12502
rthumb 10.093 -20.1224
lclavicle -3.86636e-014 4.69132e-014
lhumerus -28.934 9.24534 85.7339
lradius 30.1124
lwrist -4.00206
lhand -17.2744 24.4069
lfingers 7.12502
lthumb 8.97056 54.1962
rfemur -0.295823 2.14003 25.858
rtibia 19.6928
rfoot -11.7078 -3.98051
rtoes 3.02228
lfemur -31.858 1.64521 -19.5408
ltibia 36.1242
lfoot -15.8958 4.28001
ltoes -2.56453
317
root -8.13847 17.708 6.71948 -14.4053 71.5323 -19.9062
lowerback 6.18974 0.156496 4.81815
upperback 0.23301 0.760442 3.99997
thorax -3.23112 0.366968 1.36448
lowerneck -15.5608 -3.64317 -8.90366
upperneck 23.36 -3.30566 3.13274
head 10.255 -1.86188 2.17246
rclavicle 5.36719e-015 5.56597e-015
rhumerus -33.7843 -4.24645 -78.7441
rradius 36.632
rwrist 2.58654
rhand -16.4249 10.4308
rfingers 7.12502
rthumb 9.79018 -19.3217
lclavicle 5.36719e-015 5.56597e-015
lhumerus -29.2646 9.70182 85.2914
lradius 30.346
lwrist -3.28263
lhand -18.0585 25.5353
lfingers 7.12502
lthumb 8.21388 55.3556
rfemur 0.118948 2.86053 26.5389
rtibia 19.2719
rfoot -11.574 -3.37883
rtoes 3.58593
lfemur -32.3135 2.36547 -19.5882
ltibia 34.7693
lfoot -15.7186 5.04201
ltoes -4.6672
318
root -8.07915 17.7031 6.80109 -17.1486 72.8607 -22.6225
lowerback 6.74081 0.292209 6.07962
upperback -0.265199 1.08223 3.40113
thorax -4.0234 0.473895 0.00807053
lowerneck -14.9029 -4.00602 -8.9324
upperneck 23.653 -4.09705 4.06524
head 10.3061 -2.12136 2.4131
rclavicle -4.32854e-014 -3.97569e-016
rhumerus -34.9439 -6.1933 -78.7935
rradius 37.0132
rwrist 2.77883
rhand -16.0708 10.686
rfingers 7.12502
rthumb 10.1319 -19.05
lclavicle -4.32854e-014 -3.97569e-016
lhumerus -30.2668 7.69367 84.4367
lradius 30.474
lwrist -2.47378
lhand -18.2173 25.5117
lfingers 7.12502
lthumb 8.0606 55.338
rfemur 0.962128 2.47999 27.0758
rtibia 18.7085
rfoot -11.2908 -2.85233
rtoes -1.04036
lfemur -32.5204 3.4549 -20.1655
ltibia 33.4336
lfoot -15.2973 5.12477
ltoes -9.32971
319
root -8.02502 17.6853 6.87648 -20.9068 73.9279 -25.9907
lowerback 6.55463 -0.308801 5.26482
upperback 0.388625 0.22513 4.36544
thorax -3.28211 0.105713 1.54346
lowerneck -15.5927 -3.49716 -8.74815
upperneck 23.4799 -3.16067 3.24415
head 10.2916 -1.76664 2.20814
rclavicle 5.96354e-014 -1.51076e-014
rhumerus -33.5188 -3.95088 -78.7763
rradius 37.1185
rwrist 2.10877
rhand -16.3573 10.2119
rfingers 7.12502
rthumb 9.85549 -19.5374
lclavicle 5.96354e-014 -1.51076e-014
lhumerus -30.1243 10.5509 84.2033
lradius 30.4558
lwrist -2.95196
lhand -17.642 25.1628
lfingers 7.12502
lthumb 8.61578 54.967
rfemur 2.07021 1.84186 27.7312
rtibia 18.2646
rfoot -11.0823 -2.023
rtoes -4.03528
lfemur -32.2162 3.96271 -20.2625
ltibia 32.0716
lfoot -15.1696 4.95391
ltoes -9.02678
320
root -7.96183 17.6925 6.93811 -21.7729 74.5561 -26.6564
lowerback 6.9098 -0.131893 5.37072
upperback 0.275889 0.493262 4.138
thorax -3.59262 0.227052 1.22426
lowerneck -15.3021 -3.57588 -8.65015
upperneck 23.5649 -3.3726 3.4625
head 10.2815 -1.82926 2.24501
rclavicle 1.63997e-014 -5.1684e-014
rhumerus -33.898 -4.02857 -78.9026
rradius 37.4648
rwrist 1.31671
rhand -16.0463 10.018
rfingers 7.12502
rthumb 10.1555 -19.7169
lclavicle 1.63997e-014 -5.1684e-014
lhumerus -30.7507 10.2505 83.6476
lradius 30.5364
lwrist -2.58841
lhand -17.6531 25.4479
lfingers 7.12502
lthumb 8.60508 55.2525
rfemur 2.89789 2.0089 27.7342
rtibia 17.7326
rfoot -10.8416 -1.43904
rtoes -5.41198
lfemur -31.9614 3.38066 -20.4057
ltibia 30.8188
lfoot -15.452 5.53169
ltoes -4.23349
321
root -7.89754 17.712 6.98582 -17.9781 75.4868 -23.089
lowerback 6.57897 0.0761095 4.18684
upperback 0.151521 0.624016 3.71549
thorax -3.5378 0.29935 1.43379
lowerneck -15.2445 -3.59025 -8.43126
upperneck 23.6819 -3.45923 3.49649
head 10.3135 -1.84451 2.21103
rclavicle -8.34896e-015 -1.19271e-014
rhumerus -33.9922 -4.48201 -78.8426
rradius 37.7367
rwrist 1.53329
rhand -14.6155 10.1431
rfingers 7.12502
rthumb 11.5356 -19.5194
lclavicle -8.34896e-015 -1.19271e-014
lhumerus -31.2177 9.49577 83.3146
lradius 30.6865
lwrist -1.54637
lhand -17.6835 25.7342
lfingers 7.12502
lthumb 8.57577 55.54
rfemur 3.20307 2.16472 26.4377
rtibia 16.9933
rfoot -10.4909 -0.82274
rtoes -4.83207
lfemur -32.2662 3.06414 -21.8947
ltibia 29.6243
lfoot -15.8899 6.08915
ltoes -0.543369
